<svg width="537" height="103" viewBox="0 0 537 103" fill="none" xmlns="http://www.w3.org/2000/svg">
<path d="M175.488 49.1039H159.924L159.841 39.558H172.458C174.727 39.558 176.54 39.309 177.896 38.8109C179.251 38.2852 180.234 37.5243 180.842 36.5282C181.479 35.5321 181.797 34.287 181.797 32.7929C181.797 31.0774 181.479 29.6939 180.842 28.6425C180.206 27.5911 179.196 26.8301 177.812 26.3598C176.457 25.8617 174.7 25.6127 172.542 25.6127H165.403V74.7948H150.835V14.3651H172.542C176.277 14.3651 179.611 14.711 182.544 15.4027C185.477 16.0668 187.967 17.0906 190.015 18.474C192.09 19.8575 193.667 21.6007 194.746 23.7035C195.825 25.7787 196.365 28.2274 196.365 31.0497C196.365 33.5123 195.839 35.8227 194.788 37.9809C193.736 40.1391 191.979 41.8961 189.517 43.2519C187.082 44.58 183.748 45.2717 179.514 45.3271L175.488 49.1039ZM174.907 74.7948H156.396L161.377 63.5888H174.907C176.899 63.5888 178.49 63.2844 179.68 62.6757C180.898 62.0393 181.769 61.2092 182.295 60.1855C182.848 59.134 183.125 57.9719 183.125 56.6991C183.125 55.1496 182.862 53.8077 182.336 52.6732C181.838 51.5388 181.036 50.6672 179.929 50.0585C178.822 49.4221 177.342 49.1039 175.488 49.1039H163.245L163.328 39.558H177.979L181.382 43.3764C185.422 43.2104 188.617 43.7776 190.969 45.078C193.349 46.3785 195.05 48.094 196.074 50.2245C197.098 52.3551 197.61 54.5824 197.61 56.9066C197.61 60.8634 196.752 64.1698 195.037 66.8261C193.349 69.4823 190.817 71.4745 187.441 72.8026C184.066 74.1308 179.888 74.7948 174.907 74.7948ZM203.296 52.7978V51.9262C203.296 48.6335 203.766 45.6037 204.707 42.8368C205.648 40.0422 207.031 37.6212 208.857 35.5736C210.684 33.5261 212.939 31.9351 215.623 30.8007C218.306 29.6386 221.405 29.0575 224.919 29.0575C228.461 29.0575 231.574 29.6386 234.258 30.8007C236.969 31.9351 239.238 33.5261 241.064 35.5736C242.891 37.6212 244.274 40.0422 245.215 42.8368C246.156 45.6037 246.626 48.6335 246.626 51.9262V52.7978C246.626 56.0627 246.156 59.0925 245.215 61.8871C244.274 64.654 242.891 67.0751 241.064 69.1503C239.238 71.1978 236.983 72.7888 234.299 73.9232C231.615 75.0577 228.516 75.6249 225.002 75.6249C221.488 75.6249 218.376 75.0577 215.664 73.9232C212.952 72.7888 210.684 71.1978 208.857 69.1503C207.031 67.0751 205.648 64.654 204.707 61.8871C203.766 59.0925 203.296 56.0627 203.296 52.7978ZM217.283 51.9262V52.7978C217.283 54.4856 217.407 56.0627 217.656 57.5292C217.905 58.9957 218.32 60.2823 218.901 61.3891C219.482 62.4682 220.271 63.3121 221.267 63.9208C222.263 64.5295 223.508 64.8339 225.002 64.8339C226.469 64.8339 227.686 64.5295 228.655 63.9208C229.651 63.3121 230.439 62.4682 231.021 61.3891C231.602 60.2823 232.017 58.9957 232.266 57.5292C232.515 56.0627 232.639 54.4856 232.639 52.7978V51.9262C232.639 50.2937 232.515 48.758 232.266 47.3192C232.017 45.8528 231.602 44.5662 231.021 43.4594C230.439 42.3249 229.651 41.4395 228.655 40.8031C227.659 40.1667 226.414 39.8485 224.919 39.8485C223.453 39.8485 222.222 40.1667 221.226 40.8031C220.257 41.4395 219.482 42.3249 218.901 43.4594C218.32 44.5662 217.905 45.8528 217.656 47.3192C217.407 48.758 217.283 50.2937 217.283 51.9262ZM251.108 52.7978V51.9262C251.108 48.6335 251.579 45.6037 252.52 42.8368C253.46 40.0422 254.844 37.6212 256.67 35.5736C258.496 33.5261 260.751 31.9351 263.435 30.8007C266.119 29.6386 269.218 29.0575 272.732 29.0575C276.274 29.0575 279.386 29.6386 282.07 30.8007C284.782 31.9351 287.051 33.5261 288.877 35.5736C290.703 37.6212 292.087 40.0422 293.027 42.8368C293.968 45.6037 294.438 48.6335 294.438 51.9262V52.7978C294.438 56.0627 293.968 59.0925 293.027 61.8871C292.087 64.654 290.703 67.0751 288.877 69.1503C287.051 71.1978 284.796 72.7888 282.112 73.9232C279.428 75.0577 276.329 75.6249 272.815 75.6249C269.301 75.6249 266.188 75.0577 263.477 73.9232C260.765 72.7888 258.496 71.1978 256.67 69.1503C254.844 67.0751 253.46 64.654 252.52 61.8871C251.579 59.0925 251.108 56.0627 251.108 52.7978ZM265.095 51.9262V52.7978C265.095 54.4856 265.22 56.0627 265.469 57.5292C265.718 58.9957 266.133 60.2823 266.714 61.3891C267.295 62.4682 268.083 63.3121 269.08 63.9208C270.076 64.5295 271.321 64.8339 272.815 64.8339C274.281 64.8339 275.499 64.5295 276.467 63.9208C277.463 63.3121 278.252 62.4682 278.833 61.3891C279.414 60.2823 279.829 58.9957 280.078 57.5292C280.327 56.0627 280.452 54.4856 280.452 52.7978V51.9262C280.452 50.2937 280.327 48.758 280.078 47.3192C279.829 45.8528 279.414 44.5662 278.833 43.4594C278.252 42.3249 277.463 41.4395 276.467 40.8031C275.471 40.1667 274.226 39.8485 272.732 39.8485C271.265 39.8485 270.034 40.1667 269.038 40.8031C268.07 41.4395 267.295 42.3249 266.714 43.4594C266.133 44.5662 265.718 45.8528 265.469 47.3192C265.22 48.758 265.095 50.2937 265.095 51.9262ZM314.775 11.0033V74.7948H300.789V11.0033H314.775ZM343.496 29.8876L323.989 52.7563L313.779 62.9662L307.678 54.0844L316.187 43.0028L326.729 29.8876H343.496ZM328.513 74.7948L316.519 54.3334L326.853 46.9872L344.534 74.7948H328.513Z" fill="white"/>
<path d="M372.134 62.3852C372.134 61.5274 371.885 60.7527 371.387 60.0609C370.889 59.3692 369.962 58.7328 368.606 58.1518C367.278 57.543 365.355 56.9897 362.837 56.4916C360.568 55.9936 358.451 55.371 356.487 54.6239C354.55 53.8492 352.862 52.9223 351.423 51.8432C350.012 50.7641 348.905 49.4913 348.103 48.0248C347.301 46.5307 346.899 44.829 346.899 42.9198C346.899 41.0383 347.301 39.2675 348.103 37.6073C348.933 35.9472 350.109 34.4807 351.631 33.2079C353.18 31.9075 355.062 30.8975 357.275 30.1781C359.517 29.4311 362.035 29.0575 364.829 29.0575C368.73 29.0575 372.078 29.6801 374.873 30.9252C377.695 32.1703 379.854 33.8858 381.348 36.0717C382.869 38.2299 383.63 40.6925 383.63 43.4594H371.677C371.677 42.2973 371.428 41.2597 370.93 40.3466C370.46 39.4058 369.713 38.6726 368.689 38.1469C367.693 37.5935 366.392 37.3168 364.788 37.3168C363.459 37.3168 362.311 37.552 361.343 38.0224C360.374 38.4651 359.627 39.0738 359.102 39.8485C358.604 40.5956 358.354 41.4257 358.354 42.3388C358.354 43.0305 358.493 43.6531 358.77 44.2065C359.074 44.7322 359.558 45.2164 360.222 45.6591C360.886 46.1018 361.744 46.5168 362.795 46.9042C363.875 47.2639 365.203 47.5959 366.78 47.9003C370.017 48.5644 372.909 49.4359 375.454 50.515C378 51.5665 380.02 53.0053 381.514 54.8315C383.008 56.63 383.755 58.9957 383.755 61.9286C383.755 63.9208 383.312 65.747 382.427 67.4071C381.541 69.0673 380.269 70.5199 378.608 71.765C376.948 72.9825 374.956 73.9371 372.632 74.6288C370.335 75.2929 367.748 75.6249 364.871 75.6249C360.693 75.6249 357.151 74.8778 354.246 73.3837C351.368 71.8896 349.182 69.9942 347.688 67.6977C346.222 65.3734 345.488 62.9939 345.488 60.559H356.819C356.874 62.1915 357.289 63.5058 358.064 64.5019C358.866 65.498 359.876 66.2174 361.094 66.6601C362.339 67.1028 363.681 67.3241 365.12 67.3241C366.669 67.3241 367.956 67.1166 368.979 66.7016C370.003 66.2589 370.778 65.6778 371.304 64.9584C371.857 64.2113 372.134 63.3536 372.134 62.3852ZM413.513 29.8876V38.3544H387.366V29.8876H413.513ZM393.84 18.8061H405.793V61.2646C405.793 62.565 405.959 63.5611 406.292 64.2528C406.651 64.9446 407.177 65.4288 407.869 65.7055C408.56 65.9545 409.432 66.079 410.483 66.079C411.23 66.079 411.895 66.0513 412.476 65.996C413.084 65.913 413.596 65.83 414.011 65.747L414.053 74.5458C413.029 74.8778 411.922 75.1407 410.732 75.3344C409.543 75.5281 408.228 75.6249 406.79 75.6249C404.161 75.6249 401.864 75.196 399.9 74.3383C397.963 73.4529 396.469 72.0417 395.417 70.1049C394.366 68.168 393.84 65.6225 393.84 62.4682V18.8061ZM417.332 52.7978V51.9262C417.332 48.6335 417.802 45.6037 418.743 42.8368C419.683 40.0422 421.053 37.6212 422.852 35.5736C424.65 33.5261 426.864 31.9351 429.492 30.8007C432.121 29.6386 435.137 29.0575 438.54 29.0575C441.943 29.0575 444.973 29.6386 447.629 30.8007C450.286 31.9351 452.513 33.5261 454.312 35.5736C456.138 37.6212 457.521 40.0422 458.462 42.8368C459.403 45.6037 459.873 48.6335 459.873 51.9262V52.7978C459.873 56.0627 459.403 59.0925 458.462 61.8871C457.521 64.654 456.138 67.0751 454.312 69.1503C452.513 71.1978 450.299 72.7888 447.671 73.9232C445.042 75.0577 442.026 75.6249 438.623 75.6249C435.22 75.6249 432.19 75.0577 429.534 73.9232C426.905 72.7888 424.678 71.1978 422.852 69.1503C421.053 67.0751 419.683 64.654 418.743 61.8871C417.802 59.0925 417.332 56.0627 417.332 52.7978ZM429.285 51.9262V52.7978C429.285 54.6793 429.451 56.4363 429.783 58.0688C430.115 59.7012 430.64 61.14 431.36 62.3852C432.107 63.6026 433.075 64.5572 434.265 65.2489C435.455 65.9407 436.908 66.2865 438.623 66.2865C440.283 66.2865 441.708 65.9407 442.898 65.2489C444.088 64.5572 445.042 63.6026 445.762 62.3852C446.481 61.14 447.007 59.7012 447.339 58.0688C447.699 56.4363 447.878 54.6793 447.878 52.7978V51.9262C447.878 50.1 447.699 48.3845 447.339 46.7797C447.007 45.1472 446.467 43.7084 445.72 42.4633C445.001 41.1905 444.046 40.1944 442.856 39.475C441.667 38.7556 440.228 38.3959 438.54 38.3959C436.852 38.3959 435.413 38.7556 434.224 39.475C433.062 40.1944 432.107 41.1905 431.36 42.4633C430.64 43.7084 430.115 45.1472 429.783 46.7797C429.451 48.3845 429.285 50.1 429.285 51.9262ZM479.172 39.6825V74.7948H467.219V29.8876H478.467L479.172 39.6825ZM492.703 29.5971L492.495 40.6786C491.914 40.5956 491.208 40.5264 490.378 40.4711C489.576 40.3881 488.843 40.3466 488.179 40.3466C486.491 40.3466 485.024 40.5679 483.779 41.0107C482.562 41.4257 481.538 42.0482 480.708 42.8783C479.906 43.7084 479.297 44.7183 478.882 45.9081C478.494 47.0979 478.273 48.4537 478.218 49.9755L475.811 49.2284C475.811 46.3232 476.101 43.6531 476.682 41.2182C477.263 38.7556 478.107 36.6112 479.214 34.7851C480.348 32.9589 481.732 31.5478 483.364 30.5517C484.997 29.5556 486.864 29.0575 488.967 29.0575C489.631 29.0575 490.309 29.1129 491.001 29.2235C491.693 29.3065 492.26 29.4311 492.703 29.5971ZM518.186 75.6249C514.7 75.6249 511.573 75.0715 508.806 73.9648C506.039 72.8303 503.687 71.267 501.75 69.2748C499.841 67.2826 498.375 64.9722 497.351 62.3437C496.327 59.6874 495.815 56.8651 495.815 53.8769V52.2167C495.815 48.8134 496.3 45.7006 497.268 42.8783C498.236 40.0561 499.62 37.6073 501.418 35.5321C503.245 33.4569 505.458 31.866 508.059 30.7592C510.66 29.6247 513.593 29.0575 516.858 29.0575C520.04 29.0575 522.862 29.5832 525.325 30.6347C527.787 31.6861 529.849 33.1802 531.509 35.1171C533.197 37.0539 534.469 39.3782 535.327 42.0898C536.185 44.7737 536.614 47.762 536.614 51.0546V56.0351H500.92V48.0663H524.868V47.1532C524.868 45.4931 524.564 44.0128 523.955 42.7123C523.374 41.3842 522.489 40.3328 521.299 39.558C520.109 38.7833 518.587 38.3959 516.733 38.3959C515.156 38.3959 513.8 38.7418 512.666 39.4335C511.532 40.1252 510.605 41.0937 509.885 42.3388C509.194 43.5839 508.668 45.0504 508.308 46.7382C507.976 48.3983 507.81 50.2245 507.81 52.2167V53.8769C507.81 55.6754 508.059 57.3355 508.557 58.8573C509.083 60.3791 509.816 61.6934 510.757 62.8002C511.725 63.907 512.887 64.7647 514.243 65.3734C515.627 65.9822 517.19 66.2865 518.933 66.2865C521.091 66.2865 523.097 65.8715 524.951 65.0414C526.833 64.1837 528.451 62.897 529.807 61.1815L535.618 67.4901C534.677 68.8459 533.39 70.1464 531.758 71.3915C530.153 72.6366 528.216 73.6604 525.947 74.4628C523.678 75.2375 521.091 75.6249 518.186 75.6249Z" fill="#939393"/>
<path d="M353.892 98.7948L356.307 84.2494H357.578L356.64 89.9667H356.754C356.948 89.64 357.206 89.3038 357.528 88.9582C357.855 88.6125 358.257 88.3237 358.736 88.0917C359.214 87.855 359.787 87.7366 360.454 87.7366C361.349 87.7366 362.095 87.9733 362.692 88.4468C363.293 88.9156 363.712 89.5737 363.949 90.4213C364.185 91.2641 364.211 92.2465 364.027 93.3687C363.837 94.4956 363.485 95.4828 362.969 96.3303C362.452 97.1779 361.818 97.8384 361.065 98.3119C360.312 98.7854 359.491 99.0221 358.601 99.0221C357.938 99.0221 357.403 98.9037 356.996 98.667C356.593 98.4302 356.285 98.1391 356.072 97.7934C355.864 97.443 355.712 97.1021 355.618 96.7707H355.461L355.121 98.7948H353.892ZM356.051 93.3474C355.909 94.2281 355.909 95.0093 356.051 95.6911C356.198 96.3682 356.484 96.9009 356.91 97.2891C357.341 97.6727 357.909 97.8644 358.615 97.8644C359.339 97.8644 359.986 97.6656 360.554 97.2678C361.127 96.8654 361.6 96.3232 361.974 95.6414C362.353 94.9596 362.613 94.1949 362.756 93.3474C362.893 92.5093 362.89 91.7541 362.748 91.0818C362.606 90.4094 362.32 89.8767 361.889 89.4838C361.458 89.086 360.878 88.8872 360.149 88.8872C359.439 88.8872 358.8 89.0789 358.231 89.4624C357.668 89.8412 357.199 90.3668 356.825 91.0391C356.451 91.7068 356.193 92.4762 356.051 93.3474ZM365.717 102.886C365.466 102.886 365.234 102.862 365.021 102.815C364.813 102.767 364.649 102.715 364.531 102.658L365.064 101.543C365.461 101.681 365.826 101.723 366.157 101.671C366.494 101.624 366.813 101.463 367.116 101.188C367.419 100.914 367.718 100.504 368.011 99.9596L368.608 98.8516L366.449 87.8857H367.763L369.467 97.1471H369.559L374.339 87.8857H375.767L369.055 100.506C368.766 101.051 368.447 101.498 368.096 101.849C367.751 102.199 367.377 102.46 366.974 102.63C366.577 102.801 366.157 102.886 365.717 102.886ZM392.004 87.9639C392.038 87.1116 391.784 86.444 391.244 85.961C390.709 85.4781 389.959 85.2366 388.993 85.2366C388.321 85.2366 387.705 85.355 387.146 85.5917C386.593 85.8237 386.136 86.1433 385.776 86.5505C385.421 86.9577 385.2 87.4217 385.115 87.9426C385.054 88.3261 385.082 88.6623 385.2 88.9511C385.319 89.2352 385.501 89.4814 385.747 89.6897C385.994 89.898 386.275 90.0756 386.593 90.2224C386.914 90.3692 387.241 90.4923 387.573 90.5917L389.043 91.032C389.478 91.1599 389.912 91.3232 390.343 91.5221C390.773 91.721 391.157 91.9695 391.493 92.2678C391.829 92.5661 392.078 92.9331 392.239 93.3687C392.405 93.8043 392.438 94.3251 392.338 94.9312C392.206 95.7172 391.888 96.4203 391.387 97.0406C390.889 97.6561 390.236 98.1438 389.426 98.5036C388.617 98.8635 387.682 99.0434 386.621 99.0434C385.631 99.0434 384.798 98.8801 384.121 98.5534C383.444 98.2219 382.944 97.765 382.622 97.1826C382.3 96.6002 382.177 95.9255 382.253 95.1585H383.617C383.565 95.7314 383.671 96.2167 383.936 96.6144C384.206 97.0122 384.59 97.3152 385.087 97.5235C385.589 97.7271 386.166 97.8289 386.82 97.8289C387.544 97.8289 388.209 97.7082 388.816 97.4667C389.422 97.2205 389.921 96.8796 390.314 96.444C390.712 96.0036 390.958 95.4923 391.053 94.9099C391.138 94.4175 391.079 94.0032 390.875 93.667C390.676 93.3308 390.366 93.0491 389.945 92.8218C389.528 92.5898 389.031 92.3862 388.453 92.211L386.791 91.6997C385.707 91.3682 384.9 90.9018 384.369 90.3005C383.844 89.6992 383.657 88.9321 383.808 87.9994C383.941 87.2134 384.265 86.5245 384.781 85.9326C385.302 85.336 385.949 84.872 386.72 84.5406C387.492 84.2091 388.325 84.0434 389.22 84.0434C390.125 84.0434 390.894 84.2115 391.529 84.5477C392.168 84.8838 392.641 85.3479 392.949 85.9397C393.262 86.5268 393.378 87.2016 393.297 87.9639H392.004ZM404.888 87.8857L399.085 98.7948H397.736L395.57 87.8857H396.884L398.588 97.1258H398.681L403.46 87.8857H404.888ZM407.376 87.8857H408.647L406.665 99.8531C406.561 100.473 406.355 101.008 406.047 101.458C405.74 101.913 405.347 102.263 404.868 102.509C404.39 102.76 403.843 102.886 403.228 102.886C403.18 102.886 403.133 102.886 403.086 102.886C403.038 102.886 402.989 102.883 402.937 102.879L403.143 101.693C403.19 101.693 403.235 101.693 403.278 101.693C403.32 101.693 403.365 101.693 403.412 101.693C403.933 101.693 404.369 101.532 404.719 101.21C405.07 100.888 405.297 100.435 405.401 99.8531L407.376 87.8857ZM408.434 86.0107C408.169 86.0107 407.944 85.9208 407.759 85.7409C407.574 85.5562 407.487 85.336 407.496 85.0803C407.501 84.8389 407.598 84.6305 407.787 84.4553C407.977 84.2802 408.199 84.1926 408.455 84.1926C408.72 84.1926 408.943 84.2849 409.123 84.4695C409.307 84.6495 409.397 84.8673 409.393 85.123C409.383 85.3644 409.284 85.5728 409.094 85.748C408.91 85.9231 408.689 86.0107 408.434 86.0107ZM414.554 99.0221C413.536 99.0221 412.696 98.7854 412.033 98.3119C411.37 97.8337 410.906 97.1731 410.641 96.3303C410.376 95.4828 410.335 94.5074 410.52 93.4042C410.705 92.3057 411.069 91.3303 411.614 90.4781C412.158 89.6211 412.831 88.9511 413.631 88.4681C414.431 87.9804 415.3 87.7366 416.237 87.7366C416.829 87.7366 417.383 87.8455 417.899 88.0633C418.415 88.2764 418.853 88.6054 419.213 89.0505C419.578 89.4909 419.831 90.0472 419.973 90.7195C420.115 91.3872 420.11 92.1779 419.959 93.0917L419.86 93.7167H411.337L411.514 92.6016H418.752C418.87 91.9009 418.837 91.2712 418.652 90.7124C418.468 90.1537 418.153 89.711 417.708 89.3843C417.267 89.0529 416.72 88.8872 416.067 88.8872C415.399 88.8872 414.767 89.0742 414.171 89.4482C413.579 89.8223 413.077 90.31 412.665 90.9113C412.258 91.5079 411.995 92.1447 411.877 92.8218L411.735 93.6599C411.583 94.5832 411.602 95.3573 411.791 95.9823C411.981 96.6026 412.324 97.0713 412.821 97.3886C413.318 97.7058 413.955 97.8644 414.732 97.8644C415.253 97.8644 415.724 97.7839 416.145 97.623C416.566 97.462 416.933 97.2465 417.246 96.9766C417.558 96.702 417.809 96.4014 417.999 96.0747L419.128 96.4653C418.887 96.9246 418.546 97.3483 418.105 97.7366C417.67 98.1248 417.151 98.4373 416.55 98.6741C415.953 98.9061 415.288 99.0221 414.554 99.0221ZM427.908 87.8857L427.731 88.9866H422.518L422.702 87.8857H427.908ZM424.755 85.2721H426.026L424.251 95.9468C424.175 96.4014 424.194 96.7588 424.307 97.0193C424.421 97.2749 424.596 97.4572 424.833 97.5661C425.07 97.6703 425.33 97.7224 425.614 97.7224C425.78 97.7224 425.922 97.7129 426.04 97.694C426.163 97.6703 426.272 97.6466 426.367 97.623L426.459 98.7664C426.322 98.8138 426.159 98.8564 425.969 98.8943C425.78 98.9369 425.553 98.9582 425.287 98.9582C424.823 98.9582 424.395 98.8564 424.002 98.6528C423.609 98.4492 423.311 98.1462 423.107 97.7437C422.903 97.3412 422.849 96.8417 422.944 96.2451L424.755 85.2721ZM432.874 84.2494L430.46 98.7948H429.195L431.61 84.2494H432.874ZM438.095 99.0221C437.138 99.0221 436.333 98.7806 435.68 98.2977C435.026 97.81 434.565 97.1353 434.295 96.2735C434.025 95.4118 433.98 94.4175 434.16 93.2906C434.34 92.1921 434.697 91.2262 435.232 90.3928C435.772 89.5548 436.435 88.9037 437.221 88.4397C438.007 87.971 438.862 87.7366 439.785 87.7366C440.746 87.7366 441.551 87.9804 442.2 88.4681C442.853 88.9558 443.315 89.6305 443.585 90.4923C443.859 91.354 443.907 92.3507 443.727 93.4823C443.547 94.5761 443.187 95.5396 442.647 96.373C442.107 97.2016 441.445 97.8502 440.659 98.319C439.877 98.7877 439.023 99.0221 438.095 99.0221ZM438.109 97.8644C438.885 97.8644 439.577 97.6585 440.183 97.2465C440.794 96.8299 441.298 96.2759 441.695 95.5846C442.093 94.8886 442.361 94.1239 442.498 93.2906C442.626 92.4951 442.612 91.7636 442.455 91.096C442.299 90.4284 441.999 89.8933 441.553 89.4909C441.108 89.0884 440.517 88.8872 439.778 88.8872C439.006 88.8872 438.315 89.0979 437.704 89.5193C437.093 89.9359 436.589 90.4946 436.191 91.1954C435.794 91.8914 435.528 92.6537 435.396 93.4823C435.263 94.2825 435.273 95.0141 435.424 95.6769C435.58 96.3398 435.881 96.8701 436.326 97.2678C436.776 97.6656 437.37 97.8644 438.109 97.8644ZM454.371 90.2792L453.157 90.5917C453.095 90.265 452.982 89.9714 452.816 89.711C452.655 89.4459 452.421 89.2375 452.113 89.086C451.81 88.9298 451.412 88.8516 450.92 88.8516C450.181 88.8516 449.544 89.0316 449.009 89.3914C448.474 89.7465 448.162 90.2011 448.072 90.7551C447.996 91.2191 448.093 91.5955 448.363 91.8843C448.637 92.1731 449.097 92.4004 449.741 92.5661L451.331 92.971C452.212 93.1982 452.84 93.5534 453.214 94.0363C453.592 94.5193 453.723 95.1301 453.604 95.8687C453.5 96.4842 453.237 97.0287 452.816 97.5022C452.399 97.9757 451.864 98.3474 451.211 98.6173C450.562 98.8872 449.838 99.0221 449.037 99.0221C447.963 99.0221 447.117 98.7806 446.502 98.2977C445.891 97.8147 445.564 97.1187 445.522 96.2096L446.793 95.9255C446.831 96.5695 447.051 97.0571 447.454 97.3886C447.861 97.72 448.434 97.8857 449.172 97.8857C450.015 97.8857 450.723 97.694 451.296 97.3105C451.869 96.9269 452.198 96.4534 452.283 95.89C452.364 95.4449 452.281 95.0756 452.035 94.782C451.793 94.4885 451.381 94.2707 450.799 94.1286L449.101 93.7025C448.188 93.4705 447.541 93.1083 447.162 92.6159C446.788 92.1187 446.663 91.5055 446.786 90.7764C446.885 90.175 447.136 89.6471 447.539 89.1926C447.941 88.738 448.45 88.3829 449.066 88.1272C449.681 87.8668 450.354 87.7366 451.083 87.7366C452.087 87.7366 452.851 87.9639 453.377 88.4184C453.903 88.8682 454.234 89.4885 454.371 90.2792ZM461.99 87.8857L461.813 88.9866H456.6L456.784 87.8857H461.99ZM458.837 85.2721H460.108L458.333 95.9468C458.257 96.4014 458.276 96.7588 458.389 97.0193C458.503 97.2749 458.678 97.4572 458.915 97.5661C459.152 97.6703 459.412 97.7224 459.696 97.7224C459.862 97.7224 460.004 97.7129 460.122 97.694C460.245 97.6703 460.354 97.6466 460.449 97.623L460.541 98.7664C460.404 98.8138 460.241 98.8564 460.051 98.8943C459.862 98.9369 459.635 98.9582 459.369 98.9582C458.905 98.9582 458.477 98.8564 458.084 98.6528C457.691 98.4492 457.393 98.1462 457.189 97.7437C456.985 97.3412 456.931 96.8417 457.026 96.2451L458.837 85.2721ZM465.11 94.6755L465.366 93.0065H465.65L471.608 87.8857H473.228L467.34 92.9426L467.226 92.9639L465.11 94.6755ZM463.278 98.7948L465.692 84.2494H466.956L464.542 98.7948H463.278ZM470.096 98.7948L466.58 93.1911L467.61 92.3176L471.694 98.7948H470.096ZM477.626 99.0221C476.669 99.0221 475.865 98.7806 475.211 98.2977C474.558 97.81 474.096 97.1353 473.826 96.2735C473.556 95.4118 473.511 94.4175 473.691 93.2906C473.871 92.1921 474.229 91.2262 474.764 90.3928C475.303 89.5548 475.966 88.9037 476.752 88.4397C477.538 87.971 478.393 87.7366 479.316 87.7366C480.277 87.7366 481.082 87.9804 481.731 88.4681C482.384 88.9558 482.846 89.6305 483.116 90.4923C483.391 91.354 483.438 92.3507 483.258 93.4823C483.078 94.5761 482.718 95.5396 482.178 96.373C481.639 97.2016 480.976 97.8502 480.19 98.319C479.409 98.7877 478.554 99.0221 477.626 99.0221ZM477.64 97.8644C478.417 97.8644 479.108 97.6585 479.714 97.2465C480.325 96.8299 480.829 96.2759 481.227 95.5846C481.624 94.8886 481.892 94.1239 482.029 93.2906C482.157 92.4951 482.143 91.7636 481.987 91.096C481.83 90.4284 481.53 89.8933 481.085 89.4909C480.64 89.0884 480.048 88.8872 479.309 88.8872C478.537 88.8872 477.846 89.0979 477.235 89.5193C476.624 89.9359 476.12 90.4946 475.722 91.1954C475.325 91.8914 475.06 92.6537 474.927 93.4823C474.794 94.2825 474.804 95.0141 474.955 95.6769C475.112 96.3398 475.412 96.8701 475.857 97.2678C476.307 97.6656 476.901 97.8644 477.64 97.8644ZM485.153 98.7948L486.971 87.8857H488.199L487.915 89.5619H488.029C488.346 88.9984 488.787 88.5557 489.35 88.2338C489.913 87.907 490.553 87.7437 491.268 87.7437C492.016 87.7437 492.603 87.9213 493.029 88.2764C493.455 88.6267 493.739 89.1097 493.881 89.7252H493.974C494.314 89.1192 494.795 88.6386 495.415 88.2835C496.036 87.9236 496.743 87.7437 497.539 87.7437C498.547 87.7437 499.293 88.0633 499.776 88.7025C500.259 89.3417 500.399 90.2697 500.195 91.4866L498.974 98.7948H497.709L498.931 91.4866C499.068 90.6248 498.957 89.9785 498.597 89.5477C498.237 89.1168 497.698 88.9014 496.978 88.9014C496.144 88.9014 495.456 89.157 494.911 89.6684C494.371 90.175 494.037 90.8237 493.91 91.6144L492.709 98.7948H491.417L492.66 91.373C492.778 90.6343 492.671 90.0377 492.34 89.5832C492.013 89.1286 491.476 88.9014 490.728 88.9014C490.221 88.9014 489.745 89.0268 489.3 89.2778C488.86 89.524 488.486 89.8673 488.178 90.3076C487.875 90.7432 487.676 91.2427 487.581 91.8062L486.417 98.7948H485.153ZM506.703 99.0221C505.685 99.0221 504.844 98.7854 504.181 98.3119C503.518 97.8337 503.054 97.1731 502.789 96.3303C502.524 95.4828 502.484 94.5074 502.669 93.4042C502.853 92.3057 503.218 91.3303 503.762 90.4781C504.307 89.6211 504.979 88.9511 505.779 88.4681C506.579 87.9804 507.448 87.7366 508.386 87.7366C508.978 87.7366 509.532 87.8455 510.048 88.0633C510.564 88.2764 511.002 88.6054 511.362 89.0505C511.726 89.4909 511.98 90.0472 512.122 90.7195C512.264 91.3872 512.259 92.1779 512.107 93.0917L512.008 93.7167H503.485L503.663 92.6016H510.9C511.018 91.9009 510.985 91.2712 510.801 90.7124C510.616 90.1537 510.301 89.711 509.856 89.3843C509.416 89.0529 508.869 88.8872 508.215 88.8872C507.548 88.8872 506.916 89.0742 506.319 89.4482C505.727 89.8223 505.225 90.31 504.813 90.9113C504.406 91.5079 504.143 92.1447 504.025 92.8218L503.883 93.6599C503.731 94.5832 503.75 95.3573 503.94 95.9823C504.129 96.6026 504.472 97.0713 504.97 97.3886C505.467 97.7058 506.104 97.8644 506.88 97.8644C507.401 97.8644 507.872 97.7839 508.294 97.623C508.715 97.462 509.082 97.2465 509.394 96.9766C509.707 96.702 509.958 96.4014 510.147 96.0747L511.276 96.4653C511.035 96.9246 510.694 97.3483 510.254 97.7366C509.818 98.1248 509.3 98.4373 508.698 98.6741C508.102 98.9061 507.436 99.0221 506.703 99.0221ZM513.942 98.7948L515.76 87.8857H516.988L516.704 89.5619H516.797C517.1 89.0126 517.552 88.5699 518.153 88.2338C518.759 87.8928 519.406 87.7224 520.092 87.7224C520.196 87.7224 520.312 87.7248 520.44 87.7295C520.568 87.7295 520.675 87.7342 520.76 87.7437L520.54 89.0292C520.483 89.0197 520.383 89.0055 520.241 88.9866C520.104 88.9677 519.95 88.9582 519.78 88.9582C519.211 88.9582 518.686 89.0789 518.203 89.3204C517.725 89.5571 517.322 89.8862 516.996 90.3076C516.674 90.729 516.465 91.2096 516.371 91.7494L515.206 98.7948H513.942ZM524.991 99.0221C524.006 99.0221 523.194 98.7783 522.555 98.2906C521.916 97.8029 521.468 97.1353 521.213 96.2877C520.962 95.4355 520.926 94.4695 521.106 93.39C521.286 92.2915 521.648 91.3185 522.193 90.471C522.737 89.6187 523.41 88.9511 524.21 88.4681C525.015 87.9804 525.893 87.7366 526.845 87.7366C527.579 87.7366 528.218 87.8786 528.762 88.1627C529.307 88.4421 529.728 88.8374 530.026 89.3488C530.325 89.8554 530.467 90.4473 530.453 91.1244H529.174C529.141 90.4946 528.911 89.9643 528.485 89.5335C528.064 89.1026 527.467 88.8872 526.695 88.8872C525.99 88.8872 525.337 89.0766 524.735 89.4553C524.134 89.8294 523.625 90.3526 523.208 91.0249C522.796 91.6926 522.519 92.4667 522.377 93.3474C522.226 94.2328 522.24 95.0164 522.42 95.6982C522.6 96.3753 522.922 96.9056 523.386 97.2891C523.855 97.6727 524.446 97.8644 525.161 97.8644C525.649 97.8644 526.108 97.7745 526.539 97.5945C526.97 97.4099 527.351 97.1495 527.683 96.8133C528.014 96.4724 528.267 96.0723 528.443 95.613H529.721C529.508 96.2759 529.172 96.863 528.713 97.3744C528.258 97.8857 527.713 98.2882 527.079 98.5818C526.445 98.8753 525.749 99.0221 524.991 99.0221Z" fill="#939393"/>
<path d="M125.604 67.2233C121.161 73.0019 123.395 81.7576 116.298 88.0227C113.747 90.1971 111.59 91.2326 109.603 92.0483L107.596 94.1129L103.224 94.4547C100.071 93.2202 97.4937 91.9543 91.7242 92.4677C82.6601 93.2743 73.5908 90.822 69.5547 92.2951C65.5189 93.7686 65.093 89.3136 59.3617 90.3031C53.6308 91.2924 50.1573 90.7109 45.1451 89.2629C40.1326 87.8148 24.7335 86.5785 19.134 88.3574C13.5344 90.1363 7.14773 87.0497 3.30684 86.3177C2.11046 86.0896 1.16894 85.7776 0.447135 85.4529C0.141365 85.3153 0.000108012 85.0273 0 84.743C0 84.7428 0 84.7426 0 84.7424C0.000122369 84.3885 0.219114 84.0405 0.612117 83.9958C2.51976 83.7787 5.37081 83.2059 8.73892 81.9223C15.019 79.5289 15.7053 82.1737 24.1856 80.9439C32.6658 79.714 37.7608 77.2552 47.7388 78.8452C57.7167 80.435 60.0086 73.7817 74.0935 77.5523C88.0184 81.2799 89.6252 74.5208 103.224 73.4729L95.7463 76.2934C95.8344 76.1998 95.925 76.1046 96.018 76.0077C104.586 67.7618 114.497 56.4584 114.16 49.6285C114.187 48.6168 114.15 47.569 114.04 46.4732C113.476 40.3184 110.762 32.7404 106.654 25.4154C104.921 22.1154 101.128 18.4264 99.3726 17.8782L103.224 18.7486C95.0344 19.0609 86.4485 19.5183 78.4363 18.5268C65.1964 16.8884 46.478 14.8191 37.8303 13.4324C29.183 12.0458 27.0753 11.733 18.7518 12.5803C13.9673 13.0673 7.37633 12.6082 1.80906 10.8171C-0.992749 9.91567 -0.357858 8.66057 2.46226 8.06003C6.58618 7.1819 9.97148 7.76854 12.0964 6.19998C16.3423 3.06514 18.1469 1.86257 23.5071 3.68716C28.867 5.51153 31.3927 1.36535 34.5172 1.84256C37.6418 2.32001 37.5904 4.7656 53.4779 2.88138C69.3656 0.997086 78.0752 0.516293 84.0917 0.0639354C88.3156 -0.253642 95.7661 0.697862 103.224 1.02798L106.994 1.88028C111.812 4.4904 114.274 7.22615 116.914 9.71324C124.611 16.6229 132.129 33.889 132.677 45.7165C132.869 47.7389 132.946 49.5246 133.013 51.0234C132.991 61.4189 129.81 60.9722 125.604 67.2233Z" fill="white"/>
<path d="M94.3062 61.6551C89.7599 63.9909 90.8844 71.3955 84.698 74.2746L83.38 75.2254L79.1213 75.7237C79.0171 75.7107 78.9122 75.6946 78.8065 75.6755C73.5183 74.7201 72.7263 71.1347 66.67 71.9414C60.6141 72.748 54.5547 70.2957 51.8581 71.7687C49.1617 73.2423 48.8771 68.7873 45.0479 69.7767C41.2189 70.7661 38.8982 70.1846 35.5494 68.7365C32.2004 67.2885 21.9119 66.0522 18.1707 67.8311C14.4295 69.6099 10.1625 66.5234 7.59625 65.7913C6.79691 65.5633 6.16786 65.2513 5.68562 64.9266C5.48134 64.7889 5.38692 64.5009 5.38687 64.2167C5.38687 64.2165 5.38687 64.2163 5.38687 64.2161C5.38694 63.8622 5.53327 63.5142 5.79584 63.4694C7.07038 63.2523 8.97522 62.6796 11.2256 61.396C15.4214 59.0026 15.88 61.6474 21.5458 60.4176C27.2117 59.1877 30.6158 56.7289 37.2824 58.3189C43.9488 59.9087 45.4801 53.2554 54.8905 57.026C64.3007 60.7963 65.2912 53.8381 74.6688 52.9128C76.1056 52.771 77.6001 52.7411 79.1213 52.791L73.5338 54.2429C79.0689 51.6586 86.5187 47.4131 86.3147 45.9123C86.359 45.574 86.2516 45.436 86.1672 45.5478C85.9788 45.4698 85.8444 45.1722 84.8152 44.1153C83.8214 43.1072 82.1024 41.7516 80.1415 40.3752C79.0902 39.6273 77.7402 39.0179 76.5908 38.7035L79.1213 39.0772C72.3083 39.19 64.7284 40.3378 57.7921 39.0531C48.9462 37.4147 36.44 35.3454 30.6622 33.9587C24.8847 32.5721 23.4765 32.2593 17.9154 33.1066C14.7188 33.5936 10.3152 33.1346 6.59555 31.3434C4.72359 30.442 5.14778 29.1869 7.03197 28.5863C9.78726 27.7082 12.0491 28.2948 13.4687 26.7263C16.3056 23.5914 17.5113 22.3889 21.0925 24.2135C24.6736 26.0378 26.3611 21.8917 28.4486 22.3689C30.5363 22.8463 30.502 25.2919 41.1167 23.4077C51.7317 21.5234 57.5508 21.0426 61.5706 20.5902C65.3064 20.1698 72.8198 21.9733 79.1213 21.6153L81.6373 21.9868C82.2636 22.1474 82.883 22.314 83.4508 22.4611C89.446 24.2325 102.683 29.7296 104.757 44.3565C105.07 47.4846 104.619 50.0007 104.279 51.8018C101.748 60.9673 98.8717 58.7167 94.3062 61.6551Z" fill="white"/>
</svg>
